<svg width="65" height="43" viewBox="0 0 65 43" fill="none" xmlns="http://www.w3.org/2000/svg">
<path d="M49.5337 21.2533C49.5337 31.6297 41.9803 39.8585 32.8767 39.8585C23.7732 39.8585 16.2197 31.6297 16.2197 21.2533C16.2197 10.8769 23.7732 2.64804 32.8767 2.64804C41.9803 2.64804 49.5337 10.8769 49.5337 21.2533Z" fill="white" stroke="white" stroke-width="2"/>
<path d="M60.9608 9.5899C60.6962 8.77304 59.8515 8.02731 58.1199 7.56548C56.4154 7.11089 54.0564 6.99383 51.1755 7.24523C45.4262 7.74692 37.8267 9.69451 29.7591 12.9932C21.6915 16.2918 14.7556 20.2874 10.0643 24.0546C7.71349 25.9424 5.97341 27.7354 4.92778 29.3145C3.86553 30.9187 3.64523 32.0998 3.90989 32.9167C4.17455 33.7335 5.01915 34.4793 6.75078 34.9411C8.4553 35.3957 10.8143 35.5127 13.6953 35.2613C19.4445 34.7596 27.044 32.812 35.1116 29.5134C43.1792 26.2148 50.1151 22.2192 54.8064 18.452C57.1572 16.5642 58.8973 14.7712 59.9429 13.1921C61.0052 11.5879 61.2255 10.4068 60.9608 9.5899Z" stroke="white" stroke-width="2"/>
</svg>
