<svg width="60" height="60" viewBox="0 0 240 136" fill="none" xmlns="http://www.w3.org/2000/svg">
<ellipse cx="122.5" cy="68" rx="67.5" ry="68" fill="#1E5D92"/>
<path d="M236 68C236 65.3513 234.07 61.9251 228.344 58.0889C222.763 54.3508 214.425 50.828 203.762 47.8069C182.492 41.7803 152.876 38 120 38C87.1237 38 57.5079 41.7803 36.2376 47.8069C25.575 50.828 17.2367 54.3508 11.6564 58.0889C5.92972 61.9251 4 65.3513 4 68C4 70.6487 5.92972 74.0749 11.6564 77.9111C17.2367 81.6492 25.575 85.172 36.2376 88.1931C57.5079 94.2197 87.1237 98 120 98C152.876 98 182.492 94.2197 203.762 88.1931C214.425 85.172 222.763 81.6492 228.344 77.9111C234.07 74.0749 236 70.6487 236 68Z" stroke="#1E5D92" stroke-width="8"/>
</svg>
