<svg width="71" height="40" viewBox="0 0 71 40" fill="none" xmlns="http://www.w3.org/2000/svg">
<circle cx="36" cy="20" r="20" fill="white"/>
<path d="M70 20C70 19.1335 69.3672 18.0796 67.6559 16.9399C65.9824 15.8253 63.4948 14.7826 60.3312 13.8915C54.0177 12.113 45.2383 11 35.5 11C25.7617 11 16.9823 12.113 10.6688 13.8915C7.50522 14.7826 5.01763 15.8253 3.34408 16.9399C1.63275 18.0796 1 19.1335 1 20C1 20.8665 1.63275 21.9204 3.34408 23.0601C5.01763 24.1747 7.50522 25.2174 10.6688 26.1085C16.9823 27.887 25.7617 29 35.5 29C45.2383 29 54.0177 27.887 60.3312 26.1085C63.4948 25.2174 65.9824 24.1747 67.6559 23.0601C69.3672 21.9204 70 20.8665 70 20Z" stroke="white" stroke-width="2"/>
</svg>
